<mxfile host="app.diagrams.net" modified="2024-04-07T08:07:58.197Z" agent="Mozilla/5.0 (Windows NT 10.0; Win64; x64) AppleWebKit/537.36 (KHTML, like Gecko) Chrome/123.0.0.0 Safari/537.36 Edg/123.0.0.0" etag="wqBV8cEZ0NdWNKdRbyE5" version="24.2.2" type="github">
  <diagram id="C5RBs43oDa-KdzZeNtuy" name="Page-1">
    <mxGraphModel dx="1254" dy="1295" grid="0" gridSize="10" guides="0" tooltips="0" connect="1" arrows="1" fold="1" page="0" pageScale="1" pageWidth="827" pageHeight="1169" math="0" shadow="0">
      <root>
        <mxCell id="WIyWlLk6GJQsqaUBKTNV-0" />
        <mxCell id="WIyWlLk6GJQsqaUBKTNV-1" parent="WIyWlLk6GJQsqaUBKTNV-0" />
        <mxCell id="bhrwHAsPxj7wCZMm8D9l-0" style="edgeStyle=orthogonalEdgeStyle;rounded=0;orthogonalLoop=1;jettySize=auto;html=1;entryX=1;entryY=0.5;entryDx=0;entryDy=0;" edge="1" parent="WIyWlLk6GJQsqaUBKTNV-1" source="zkfFHV4jXpPFQw0GAbJ--0" target="ijNItwPhicT-rT-5I67z-3">
          <mxGeometry relative="1" as="geometry" />
        </mxCell>
        <mxCell id="bhrwHAsPxj7wCZMm8D9l-1" style="edgeStyle=orthogonalEdgeStyle;rounded=0;orthogonalLoop=1;jettySize=auto;html=1;" edge="1" parent="WIyWlLk6GJQsqaUBKTNV-1" source="zkfFHV4jXpPFQw0GAbJ--0" target="zkfFHV4jXpPFQw0GAbJ--6">
          <mxGeometry relative="1" as="geometry" />
        </mxCell>
        <mxCell id="zkfFHV4jXpPFQw0GAbJ--0" value="UtagLabelController" style="swimlane;fontStyle=2;align=center;verticalAlign=top;childLayout=stackLayout;horizontal=1;startSize=26;horizontalStack=0;resizeParent=1;resizeLast=0;collapsible=1;marginBottom=0;rounded=0;shadow=0;strokeWidth=1;fontSize=16;" parent="WIyWlLk6GJQsqaUBKTNV-1" vertex="1">
          <mxGeometry x="1136" y="-91" width="562" height="162" as="geometry">
            <mxRectangle x="230" y="140" width="160" height="26" as="alternateBounds" />
          </mxGeometry>
        </mxCell>
        <mxCell id="zkfFHV4jXpPFQw0GAbJ--1" value="- utagLabelServiceImpl : UtagLabelServiceImpl" style="text;align=left;verticalAlign=top;spacingLeft=4;spacingRight=4;overflow=hidden;rotatable=0;points=[[0,0.5],[1,0.5]];portConstraint=eastwest;fontSize=16;" parent="zkfFHV4jXpPFQw0GAbJ--0" vertex="1">
          <mxGeometry y="26" width="562" height="24" as="geometry" />
        </mxCell>
        <mxCell id="zkfFHV4jXpPFQw0GAbJ--4" value="" style="line;html=1;strokeWidth=1;align=left;verticalAlign=middle;spacingTop=-1;spacingLeft=3;spacingRight=3;rotatable=0;labelPosition=right;points=[];portConstraint=eastwest;fontSize=16;" parent="zkfFHV4jXpPFQw0GAbJ--0" vertex="1">
          <mxGeometry y="50" width="562" height="7" as="geometry" />
        </mxCell>
        <mxCell id="leDKgYyMwmwTG1ITvoYh-4" value="+ list(Long taskId, HttpServletRequest requesrt) : Result&#xa;+ insert(UtagLabelDO, HttpServletRequest requesrt) : Result&#xa;+ update(UtagLabelDO, HttpServletRequest requesrt) : Result&#xa;+ delete(Long taskId, Long id, HttpServletRequest request) : Result&#xa;+ saveAllLabels(LabelListDTO labelList, HttpServletRequest request) : Result" style="text;align=left;verticalAlign=top;spacingLeft=4;spacingRight=4;overflow=hidden;rotatable=0;points=[[0,0.5],[1,0.5]];portConstraint=eastwest;fontSize=16;" parent="zkfFHV4jXpPFQw0GAbJ--0" vertex="1">
          <mxGeometry y="57" width="562" height="105" as="geometry" />
        </mxCell>
        <mxCell id="bhrwHAsPxj7wCZMm8D9l-2" style="edgeStyle=orthogonalEdgeStyle;rounded=0;orthogonalLoop=1;jettySize=auto;html=1;entryX=0.5;entryY=0;entryDx=0;entryDy=0;" edge="1" parent="WIyWlLk6GJQsqaUBKTNV-1" source="zkfFHV4jXpPFQw0GAbJ--6" target="leDKgYyMwmwTG1ITvoYh-6">
          <mxGeometry relative="1" as="geometry" />
        </mxCell>
        <mxCell id="zkfFHV4jXpPFQw0GAbJ--6" value="UtagLabelServiceImpl" style="swimlane;fontStyle=0;align=center;verticalAlign=top;childLayout=stackLayout;horizontal=1;startSize=26;horizontalStack=0;resizeParent=1;resizeLast=0;collapsible=1;marginBottom=0;rounded=0;shadow=0;strokeWidth=1;fontSize=16;" parent="WIyWlLk6GJQsqaUBKTNV-1" vertex="1">
          <mxGeometry x="796" y="167" width="904" height="217" as="geometry">
            <mxRectangle x="130" y="380" width="160" height="26" as="alternateBounds" />
          </mxGeometry>
        </mxCell>
        <mxCell id="zkfFHV4jXpPFQw0GAbJ--7" value="- commonMongoQo : CommonMongoQo&#xa;- mongoTemplate : MongoTemplate&#xa;- utagLabelRepository : UtagLabelRepository&#xa;- libraryRepository : LibraryRepository" style="text;align=left;verticalAlign=top;spacingLeft=4;spacingRight=4;overflow=hidden;rotatable=0;points=[[0,0.5],[1,0.5]];portConstraint=eastwest;fontSize=16;" parent="zkfFHV4jXpPFQw0GAbJ--6" vertex="1">
          <mxGeometry y="26" width="904" height="64" as="geometry" />
        </mxCell>
        <mxCell id="zkfFHV4jXpPFQw0GAbJ--9" value="" style="line;html=1;strokeWidth=1;align=left;verticalAlign=middle;spacingTop=-1;spacingLeft=3;spacingRight=3;rotatable=0;labelPosition=right;points=[];portConstraint=eastwest;fontSize=16;" parent="zkfFHV4jXpPFQw0GAbJ--6" vertex="1">
          <mxGeometry y="90" width="904" height="13" as="geometry" />
        </mxCell>
        <mxCell id="zkfFHV4jXpPFQw0GAbJ--11" value="+ listUtagLabelByTaskAndUser(Long taskId, String userId) : Result&#xa;+ insertLabel(UtagLabelDO utagLabelDO) : Result&#xa;+ updateLabel(UtagLabelDO utagLabelDO) : Result&#xa;+ deleteLabel(Long labelId, Long taskId, String userId) : Result&#xa;+ saveAllLabels(List&lt;UtagLabelDTO&gt; labelList, List&lt;Long&gt; deleteIds, String libraryName, Long taskId, String userId) : Result " style="text;align=left;verticalAlign=top;spacingLeft=4;spacingRight=4;overflow=hidden;rotatable=0;points=[[0,0.5],[1,0.5]];portConstraint=eastwest;fontSize=16;" parent="zkfFHV4jXpPFQw0GAbJ--6" vertex="1">
          <mxGeometry y="103" width="904" height="106" as="geometry" />
        </mxCell>
        <mxCell id="leDKgYyMwmwTG1ITvoYh-6" value="&lt;&lt;interface&gt;&gt;&#xa;UtagLabelService" style="swimlane;fontStyle=0;align=center;verticalAlign=top;childLayout=stackLayout;horizontal=1;startSize=48;horizontalStack=0;resizeParent=1;resizeLast=0;collapsible=1;marginBottom=0;rounded=0;shadow=0;strokeWidth=1;fontSize=16;" parent="WIyWlLk6GJQsqaUBKTNV-1" vertex="1">
          <mxGeometry x="799" y="460" width="900" height="163" as="geometry">
            <mxRectangle x="130" y="380" width="160" height="26" as="alternateBounds" />
          </mxGeometry>
        </mxCell>
        <mxCell id="leDKgYyMwmwTG1ITvoYh-9" value="+ listUtagLabelByTaskAndUser(Long taskId, String userId) : Result&#xa;+ insertLabel(UtagLabelDO utagLabelDO) : Result&#xa;+ updateLabel(UtagLabelDO utagLabelDO) : Result&#xa;+ deleteLabel(Long labelId, Long taskId, String userId) : Result&#xa;+ saveAllLabels(List&lt;UtagLabelDTO&gt; labelList, List&lt;Long&gt; deleteIds, String libraryName, Long taskId, String userId) : Result " style="text;align=left;verticalAlign=top;spacingLeft=4;spacingRight=4;overflow=hidden;rotatable=0;points=[[0,0.5],[1,0.5]];portConstraint=eastwest;fontSize=16;" parent="leDKgYyMwmwTG1ITvoYh-6" vertex="1">
          <mxGeometry y="48" width="900" height="115" as="geometry" />
        </mxCell>
        <mxCell id="ijNItwPhicT-rT-5I67z-0" value="BaseController" style="swimlane;fontStyle=2;align=center;verticalAlign=top;childLayout=stackLayout;horizontal=1;startSize=26;horizontalStack=0;resizeParent=1;resizeLast=0;collapsible=1;marginBottom=0;rounded=0;shadow=0;strokeWidth=1;fontSize=16;" parent="WIyWlLk6GJQsqaUBKTNV-1" vertex="1">
          <mxGeometry x="684" y="-69" width="404" height="92" as="geometry">
            <mxRectangle x="230" y="140" width="160" height="26" as="alternateBounds" />
          </mxGeometry>
        </mxCell>
        <mxCell id="ijNItwPhicT-rT-5I67z-3" value="# getUserId() : String&#xa;# getUserName() : String&#xa;# getFileSecurity(HttpServletRequest request) : Integer" style="text;align=left;verticalAlign=top;spacingLeft=4;spacingRight=4;overflow=hidden;rotatable=0;points=[[0,0.5],[1,0.5]];portConstraint=eastwest;fontSize=16;" parent="ijNItwPhicT-rT-5I67z-0" vertex="1">
          <mxGeometry y="26" width="404" height="66" as="geometry" />
        </mxCell>
        <mxCell id="s-RZ2mOXNUzrkTFULdYA-0" value="&lt;&lt;interface&gt;&gt;&#xa;CommonMongoQo" style="swimlane;fontStyle=0;align=center;verticalAlign=top;childLayout=stackLayout;horizontal=1;startSize=47;horizontalStack=0;resizeParent=1;resizeLast=0;collapsible=1;marginBottom=0;rounded=0;shadow=0;strokeWidth=1;fontSize=16;" parent="WIyWlLk6GJQsqaUBKTNV-1" vertex="1">
          <mxGeometry x="805" y="1017" width="422" height="152" as="geometry">
            <mxRectangle x="130" y="380" width="160" height="26" as="alternateBounds" />
          </mxGeometry>
        </mxCell>
        <mxCell id="s-RZ2mOXNUzrkTFULdYA-1" value="~ getPkId() : Long&#xa;~ insertInfo(T entity) : &lt;T extends BaseEntity&gt;&#xa;~ batchInsert(List&lt;T&gt; entityList) : &lt;T extends BaseEntity&gt;&#xa;~ save(T entity) : &lt;T extends BaseEntity&gt;&#xa;..." style="text;align=left;verticalAlign=top;spacingLeft=4;spacingRight=4;overflow=hidden;rotatable=0;points=[[0,0.5],[1,0.5]];portConstraint=eastwest;fontSize=16;" parent="s-RZ2mOXNUzrkTFULdYA-0" vertex="1">
          <mxGeometry y="47" width="422" height="105" as="geometry" />
        </mxCell>
        <mxCell id="s-RZ2mOXNUzrkTFULdYA-2" value="MongoTemplate" style="swimlane;fontStyle=0;align=center;verticalAlign=top;childLayout=stackLayout;horizontal=1;startSize=27;horizontalStack=0;resizeParent=1;resizeLast=0;collapsible=1;marginBottom=0;rounded=0;shadow=0;strokeWidth=1;fontSize=16;" parent="WIyWlLk6GJQsqaUBKTNV-1" vertex="1">
          <mxGeometry x="806" y="901" width="167" height="65" as="geometry">
            <mxRectangle x="130" y="380" width="160" height="26" as="alternateBounds" />
          </mxGeometry>
        </mxCell>
        <mxCell id="s-RZ2mOXNUzrkTFULdYA-3" value="..." style="text;align=left;verticalAlign=top;spacingLeft=4;spacingRight=4;overflow=hidden;rotatable=0;points=[[0,0.5],[1,0.5]];portConstraint=eastwest;fontSize=16;" parent="s-RZ2mOXNUzrkTFULdYA-2" vertex="1">
          <mxGeometry y="27" width="167" height="38" as="geometry" />
        </mxCell>
        <mxCell id="bhrwHAsPxj7wCZMm8D9l-7" style="edgeStyle=orthogonalEdgeStyle;rounded=0;orthogonalLoop=1;jettySize=auto;html=1;" edge="1" parent="WIyWlLk6GJQsqaUBKTNV-1" source="s-RZ2mOXNUzrkTFULdYA-5" target="s-RZ2mOXNUzrkTFULdYA-0">
          <mxGeometry relative="1" as="geometry" />
        </mxCell>
        <mxCell id="s-RZ2mOXNUzrkTFULdYA-5" value="CommonMongoQoImpl" style="swimlane;fontStyle=0;align=center;verticalAlign=top;childLayout=stackLayout;horizontal=1;startSize=26;horizontalStack=0;resizeParent=1;resizeLast=0;collapsible=1;marginBottom=0;rounded=0;shadow=0;strokeWidth=1;fontSize=16;" parent="WIyWlLk6GJQsqaUBKTNV-1" vertex="1">
          <mxGeometry x="804" y="688" width="425" height="164" as="geometry">
            <mxRectangle x="130" y="380" width="160" height="26" as="alternateBounds" />
          </mxGeometry>
        </mxCell>
        <mxCell id="s-RZ2mOXNUzrkTFULdYA-6" value="- mongoRepository : CommonMongoRepository" style="text;align=left;verticalAlign=top;spacingLeft=4;spacingRight=4;overflow=hidden;rotatable=0;points=[[0,0.5],[1,0.5]];portConstraint=eastwest;fontSize=16;" parent="s-RZ2mOXNUzrkTFULdYA-5" vertex="1">
          <mxGeometry y="26" width="425" height="25" as="geometry" />
        </mxCell>
        <mxCell id="s-RZ2mOXNUzrkTFULdYA-7" value="" style="line;html=1;strokeWidth=1;align=left;verticalAlign=middle;spacingTop=-1;spacingLeft=3;spacingRight=3;rotatable=0;labelPosition=right;points=[];portConstraint=eastwest;fontSize=16;" parent="s-RZ2mOXNUzrkTFULdYA-5" vertex="1">
          <mxGeometry y="51" width="425" height="8" as="geometry" />
        </mxCell>
        <mxCell id="s-RZ2mOXNUzrkTFULdYA-8" value="~ getPkId() : Long&#xa;~ insertInfo(T entity) : &lt;T extends BaseEntity&gt;&#xa;~ batchInsert(List&lt;T&gt; entityList) : &lt;T extends BaseEntity&gt;&#xa;~ save(T entity) : &lt;T extends BaseEntity&gt;&#xa;..." style="text;align=left;verticalAlign=top;spacingLeft=4;spacingRight=4;overflow=hidden;rotatable=0;points=[[0,0.5],[1,0.5]];portConstraint=eastwest;fontSize=16;" parent="s-RZ2mOXNUzrkTFULdYA-5" vertex="1">
          <mxGeometry y="59" width="425" height="105" as="geometry" />
        </mxCell>
        <mxCell id="bhrwHAsPxj7wCZMm8D9l-11" style="edgeStyle=orthogonalEdgeStyle;rounded=0;orthogonalLoop=1;jettySize=auto;html=1;" edge="1" parent="WIyWlLk6GJQsqaUBKTNV-1" source="s-RZ2mOXNUzrkTFULdYA-12" target="s-RZ2mOXNUzrkTFULdYA-14">
          <mxGeometry relative="1" as="geometry" />
        </mxCell>
        <mxCell id="s-RZ2mOXNUzrkTFULdYA-12" value="&lt;&lt;interface&gt;&gt;&#xa;UtagLabelRepository" style="swimlane;fontStyle=0;align=center;verticalAlign=top;childLayout=stackLayout;horizontal=1;startSize=47;horizontalStack=0;resizeParent=1;resizeLast=0;collapsible=1;marginBottom=0;rounded=0;shadow=0;strokeWidth=1;fontSize=16;" parent="WIyWlLk6GJQsqaUBKTNV-1" vertex="1">
          <mxGeometry x="1299" y="811" width="479" height="135" as="geometry">
            <mxRectangle x="130" y="380" width="160" height="26" as="alternateBounds" />
          </mxGeometry>
        </mxCell>
        <mxCell id="s-RZ2mOXNUzrkTFULdYA-13" value="~ getUtagLabel(Long taskId, String userId) : List&lt;UtagLabelDTO&gt;&#xa;~ insertUtag(UtagLabelDO utagLabelDO) : void&#xa;~ deleteUtagById(Long id) : void&#xa;..." style="text;align=left;verticalAlign=top;spacingLeft=4;spacingRight=4;overflow=hidden;rotatable=0;points=[[0,0.5],[1,0.5]];portConstraint=eastwest;fontSize=16;" parent="s-RZ2mOXNUzrkTFULdYA-12" vertex="1">
          <mxGeometry y="47" width="479" height="88" as="geometry" />
        </mxCell>
        <mxCell id="s-RZ2mOXNUzrkTFULdYA-14" value="&lt;&lt;interface&gt;&gt;&#xa;BaseMapper" style="swimlane;fontStyle=0;align=center;verticalAlign=top;childLayout=stackLayout;horizontal=1;startSize=47;horizontalStack=0;resizeParent=1;resizeLast=0;collapsible=1;marginBottom=0;rounded=0;shadow=0;strokeWidth=1;fontSize=16;" parent="WIyWlLk6GJQsqaUBKTNV-1" vertex="1">
          <mxGeometry x="1347" y="1021" width="385" height="134" as="geometry">
            <mxRectangle x="130" y="380" width="160" height="26" as="alternateBounds" />
          </mxGeometry>
        </mxCell>
        <mxCell id="s-RZ2mOXNUzrkTFULdYA-15" value="~ insert(T entity) : int&#xa;~ deleteById(Serializable id) : int&#xa;~ update(T entity, Wrapper&lt;T&gt; updateWrapper) : int&#xa;..." style="text;align=left;verticalAlign=top;spacingLeft=4;spacingRight=4;overflow=hidden;rotatable=0;points=[[0,0.5],[1,0.5]];portConstraint=eastwest;fontSize=16;" parent="s-RZ2mOXNUzrkTFULdYA-14" vertex="1">
          <mxGeometry y="47" width="385" height="87" as="geometry" />
        </mxCell>
        <mxCell id="s-RZ2mOXNUzrkTFULdYA-17" value="&lt;&lt;interface&gt;&gt;&#xa;UtagLabelHistoryRepository" style="swimlane;fontStyle=0;align=center;verticalAlign=top;childLayout=stackLayout;horizontal=1;startSize=47;horizontalStack=0;resizeParent=1;resizeLast=0;collapsible=1;marginBottom=0;rounded=0;shadow=0;strokeWidth=1;fontSize=16;" parent="WIyWlLk6GJQsqaUBKTNV-1" vertex="1">
          <mxGeometry x="1289" y="652" width="507" height="116" as="geometry">
            <mxRectangle x="130" y="380" width="160" height="26" as="alternateBounds" />
          </mxGeometry>
        </mxCell>
        <mxCell id="s-RZ2mOXNUzrkTFULdYA-18" value="~ listHistoryLabel(Long libraryId) : List&lt;UtagLabelHistoryDO&gt;&#xa;~ createHistoryLabel(Long taskId, Long libraryId, String userId) : Long&#xa;..." style="text;align=left;verticalAlign=top;spacingLeft=4;spacingRight=4;overflow=hidden;rotatable=0;points=[[0,0.5],[1,0.5]];portConstraint=eastwest;fontSize=16;" parent="s-RZ2mOXNUzrkTFULdYA-17" vertex="1">
          <mxGeometry y="47" width="507" height="69" as="geometry" />
        </mxCell>
        <mxCell id="bhrwHAsPxj7wCZMm8D9l-3" style="edgeStyle=orthogonalEdgeStyle;rounded=0;orthogonalLoop=1;jettySize=auto;html=1;entryX=0;entryY=0.37;entryDx=0;entryDy=0;entryPerimeter=0;" edge="1" parent="WIyWlLk6GJQsqaUBKTNV-1" source="zkfFHV4jXpPFQw0GAbJ--11" target="s-RZ2mOXNUzrkTFULdYA-8">
          <mxGeometry relative="1" as="geometry">
            <Array as="points">
              <mxPoint x="762" y="323" />
              <mxPoint x="762" y="786" />
            </Array>
          </mxGeometry>
        </mxCell>
        <mxCell id="bhrwHAsPxj7wCZMm8D9l-4" style="edgeStyle=orthogonalEdgeStyle;rounded=0;orthogonalLoop=1;jettySize=auto;html=1;entryX=0;entryY=0.5;entryDx=0;entryDy=0;" edge="1" parent="WIyWlLk6GJQsqaUBKTNV-1" source="zkfFHV4jXpPFQw0GAbJ--11" target="s-RZ2mOXNUzrkTFULdYA-3">
          <mxGeometry relative="1" as="geometry">
            <Array as="points">
              <mxPoint x="732" y="323" />
              <mxPoint x="732" y="947" />
            </Array>
          </mxGeometry>
        </mxCell>
        <mxCell id="bhrwHAsPxj7wCZMm8D9l-8" style="edgeStyle=orthogonalEdgeStyle;rounded=0;orthogonalLoop=1;jettySize=auto;html=1;entryX=1.002;entryY=0.186;entryDx=0;entryDy=0;entryPerimeter=0;" edge="1" parent="WIyWlLk6GJQsqaUBKTNV-1" source="leDKgYyMwmwTG1ITvoYh-6" target="s-RZ2mOXNUzrkTFULdYA-18">
          <mxGeometry relative="1" as="geometry">
            <Array as="points">
              <mxPoint x="1815" y="541" />
              <mxPoint x="1815" y="712" />
            </Array>
          </mxGeometry>
        </mxCell>
        <mxCell id="bhrwHAsPxj7wCZMm8D9l-9" style="edgeStyle=orthogonalEdgeStyle;rounded=0;orthogonalLoop=1;jettySize=auto;html=1;entryX=0.999;entryY=0.291;entryDx=0;entryDy=0;entryPerimeter=0;" edge="1" parent="WIyWlLk6GJQsqaUBKTNV-1" source="leDKgYyMwmwTG1ITvoYh-6" target="s-RZ2mOXNUzrkTFULdYA-13">
          <mxGeometry relative="1" as="geometry">
            <Array as="points">
              <mxPoint x="1843" y="541" />
              <mxPoint x="1843" y="884" />
            </Array>
          </mxGeometry>
        </mxCell>
        <mxCell id="bhrwHAsPxj7wCZMm8D9l-10" style="edgeStyle=orthogonalEdgeStyle;rounded=0;orthogonalLoop=1;jettySize=auto;html=1;entryX=0;entryY=0.5;entryDx=0;entryDy=0;" edge="1" parent="WIyWlLk6GJQsqaUBKTNV-1" source="s-RZ2mOXNUzrkTFULdYA-18" target="s-RZ2mOXNUzrkTFULdYA-15">
          <mxGeometry relative="1" as="geometry" />
        </mxCell>
      </root>
    </mxGraphModel>
  </diagram>
</mxfile>
